<?xml version="1.0" encoding="utf-8"?>
<!-- Generator: Adobe Illustrator 16.0.0, SVG Export Plug-In . SVG Version: 6.00 Build 0)  -->
<!DOCTYPE svg PUBLIC "-//W3C//DTD SVG 1.1//EN" "http://www.w3.org/Graphics/SVG/1.1/DTD/svg11.dtd">
<svg version="1.1" id="Layer_1" xmlns="http://www.w3.org/2000/svg" xmlns:xlink="http://www.w3.org/1999/xlink" x="0px" y="0px"
	 width="32px" height="32px" viewBox="0 0 32 32" enable-background="new 0 0 32 32" xml:space="preserve">
<g>
	<path d="M31.487,15.139c0,0.078-0.006,0.154-0.006,0.232c-0.071-2.475-0.805-5.055-2.213-7.717
		c-0.059-0.113-0.13-0.227-0.207-0.338l-0.308-0.444L28.44,6.434c-0.077-0.106-0.154-0.201-0.231-0.296
		c-3.373-3.757-7.326-5.622-11.753-5.532c-2.213,0.047-4.515,0.591-6.859,1.632C9.45,2.309,9.308,2.38,9.172,2.469L8.881,2.646
		L8.302,3.007C8.171,3.091,8.046,3.179,7.935,3.28C4.36,6.244,2.626,9.535,2.756,13.097c0.006,0.119,0.006,0.243,0.018,0.362
		c-0.006-0.095-0.012-0.19-0.018-0.285c0.024,2.066,0.053,4.12,0.083,6.185c-0.709,0.214-1.337,0.639-1.77,1.254
		c-0.331,0.474-0.508,1.007-0.55,1.54c0-0.056-0.006-0.113-0.012-0.166c0.023,1.631,0.048,3.271,0.071,4.905
		c-0.067,0.521,4.491,2.444,4.491,2.444c3.036,1.355,6.196,1.904,6.196,1.904c9.69,2.511,19.456-4.962,20.219-12.188
		C31.468,17.751,31.506,16.441,31.487,15.139z M17.504,7.508c0.002,0,0.003,0.001,0.006,0.001c0.004,0,0.008,0.001,0.013,0.002
		h-0.019C17.504,7.511,17.504,7.509,17.504,7.508z"/>
	<path fill="#FFFFFF" d="M18.609,23.472c-1.639,0.868-3.199,1.201-4.701,1.231c-2.108,0.041-4.111-0.506-6.1-0.983l-3.936-1.36
		c1.702,1.705,4.175,3.061,7.364,4.542c1.45,0.676,2.907,0.9,4.281,0.875c1.139-0.022,2.221-0.223,3.195-0.489
		c2.154-0.583,3.368-1.359,3.756-1.604c0.186-0.145,0.364-0.291,0.54-0.438c0.03-0.025,0.058-0.051,0.088-0.076
		c0.061-0.053,0.12-0.105,0.18-0.156c0.144-0.126,0.285-0.25,0.423-0.376c0.033-0.032,0.068-0.064,0.102-0.097
		c0.027-0.025,0.056-0.051,0.084-0.076c-0.002,0-0.002,0-0.002,0c0.148-0.138,0.292-0.278,0.433-0.418
		c0-0.002,0.001-0.002,0.002-0.002c0.037-0.037,0.074-0.076,0.111-0.113c0.175-0.177,0.344-0.355,0.504-0.537h-0.001
		c0.005-0.002,0.008-0.007,0.012-0.012c0.006-0.007,0.013-0.014,0.019-0.021c0.028-0.034,0.058-0.066,0.087-0.102
		c-0.001,0.003-0.002,0.003-0.003,0.005c0.123-0.14,0.242-0.282,0.358-0.423c-0.001,0-0.001,0.003-0.003,0.003
		c0.05-0.061,0.097-0.12,0.146-0.18c0.105-0.136,0.209-0.271,0.309-0.406c-0.001,0.002-0.001,0.002-0.002,0.004
		c0.021-0.029,0.041-0.057,0.062-0.085c0.019-0.027,0.037-0.053,0.057-0.078c0.133-0.186,0.262-0.374,0.383-0.562
		c0,0,0,0-0.002,0.002c0.011-0.016,0.019-0.032,0.029-0.046c-0.002,0.003-0.004,0.005-0.005,0.005
		c0.001-0.002,0.003-0.005,0.005-0.007v0.002c0.109-0.174,0.214-0.349,0.313-0.525c0,0,0,0,0,0.002
		c0.032-0.06,0.064-0.119,0.097-0.177c-0.001,0-0.001,0-0.003,0.002c0.002-0.002,0.003-0.002,0.003-0.005c0,0,0,0,0,0.003
		c0.074-0.141,0.146-0.278,0.216-0.418c0,0,0,0.002-0.001,0.002c0.001,0,0.001-0.002,0.002-0.002c0.03-0.06,0.06-0.122,0.089-0.185
		c0.075-0.16,0.146-0.321,0.215-0.484c-0.002,0.002-0.003,0.005-0.004,0.007c0.001-0.002,0.002-0.005,0.004-0.007l0,0
		c0.014-0.034,0.029-0.068,0.044-0.104c-0.001,0-0.001,0.003-0.001,0.003c0.078-0.198,0.15-0.396,0.219-0.596c0,0,0,0-0.001,0
		c0.017-0.05,0.032-0.104,0.048-0.153c0,0.002-0.001,0.002-0.001,0.004c0.049-0.153,0.094-0.305,0.136-0.459
		c0,0.002-0.002,0.002-0.002,0.002c0.018-0.064,0.035-0.131,0.051-0.195c0,0,0,0,0,0.003c0.037-0.152,0.07-0.302,0.101-0.453
		c0-0.002,0-0.002,0-0.004c0,0.002,0,0.002,0,0.004c0.011-0.058,0.023-0.112,0.034-0.17c0,0.002,0,0.002,0,0.002
		c0.036-0.204,0.07-0.411,0.094-0.618l0,0c0.004-0.027,0.005-0.055,0.009-0.082c0,0.002,0,0.004,0,0.004
		c0.02-0.181,0.035-0.365,0.046-0.548c0-0.002,0-0.005,0-0.009c0.003-0.062,0.007-0.124,0.009-0.186c0,0,0,0,0,0.002
		c0.006-0.152,0.009-0.303,0.008-0.458c0-0.062,0-0.124-0.001-0.188v-0.002c-0.002-0.115-0.012-0.232-0.018-0.347
		c-0.004-0.115-0.007-0.229-0.016-0.344c-0.004-0.025-0.006-0.051-0.009-0.074c-0.019-0.209-0.044-0.42-0.075-0.631
		c-0.009-0.066-0.02-0.132-0.03-0.199c-0.031-0.202-0.069-0.405-0.113-0.61c-0.007-0.037-0.013-0.072-0.021-0.108
		c-0.045-0.2-0.093-0.4-0.147-0.602c-0.052-0.189-0.106-0.381-0.167-0.573c-0.032-0.103-0.069-0.206-0.104-0.308
		c-0.02-0.061-0.039-0.121-0.062-0.18c-0.085-0.243-0.177-0.486-0.276-0.73c-0.018-0.046-0.038-0.091-0.057-0.136
		c-0.001-0.003-0.003-0.007-0.005-0.012c-0.054-0.128-0.106-0.258-0.164-0.387c-0.176-0.394-0.37-0.794-0.582-1.196
		c-0.207-0.294-0.418-0.589-0.624-0.883c-2.701-3.014-5.742-4.481-9.113-4.416c-0.436,0.008-0.876,0.042-1.322,0.102
		c-1.34,0.18-2.729,0.592-4.169,1.234c-0.292,0.179-0.583,0.36-0.875,0.544c-3.367,2.799-4.549,5.634-3.854,8.79
		c0.878,3.988,4.593,6.381,7.972,6.312c0.401-0.009,0.797-0.053,1.186-0.131c4.12-0.841,6.91-5.139,4.191-8.608
		c-0.68-0.87-1.499-1.427-2.464-1.407c-0.268,0.006-0.547,0.058-0.836,0.155c-0.948,0.326-1.322,1.267-0.665,2.27
		c0.399,0.604,1.132,0.537,1.748,1.211c1.232,1.354-0.441,2.799-1.373,3.334c-0.714,0.404-1.41,0.611-2.076,0.625
		c-1.324,0.027-2.536-0.715-3.559-2.203c-1.648-2.412-0.923-5.585,1.652-7.319c0.159-0.107,0.318-0.207,0.479-0.299
		c1.128-0.651,2.329-0.961,3.518-0.985c0.161-0.003,0.321,0,0.483,0.007c-0.002,0-0.002,0-0.003,0
		c0.02,0.001,0.039,0.002,0.059,0.004c0.006,0,0.011,0,0.017,0.001c0.014,0.001,0.025,0.001,0.039,0.002
		c0.014,0.001,0.028,0.002,0.043,0.003c-0.013-0.001-0.023-0.001-0.035-0.002c0.123,0.008,0.244,0.017,0.366,0.031
		c-0.003-0.001-0.009-0.001-0.013-0.002c0.054,0.007,0.105,0.014,0.158,0.021c-0.006-0.001-0.01-0.002-0.016-0.002
		c0.014,0.002,0.027,0.003,0.041,0.005c-0.008-0.001-0.018-0.002-0.025-0.003c0.107,0.015,0.213,0.031,0.319,0.048
		c-0.001,0-0.002,0-0.003,0c0.007,0.001,0.014,0.002,0.021,0.003c0.028,0.004,0.058,0.01,0.086,0.016
		c0.015,0.003,0.031,0.007,0.046,0.009c0.012,0.002,0.023,0.004,0.033,0.007c-0.009-0.002-0.019-0.003-0.028-0.006
		c0.114,0.023,0.229,0.048,0.344,0.077c-0.01-0.002-0.019-0.005-0.029-0.007c0.011,0.002,0.021,0.004,0.033,0.008
		c0.04,0.01,0.081,0.021,0.121,0.031c0.124,0.033,0.248,0.07,0.369,0.109c-0.016-0.004-0.031-0.01-0.048-0.015
		c0.053,0.016,0.106,0.032,0.161,0.05c-0.008-0.002-0.016-0.004-0.022-0.007c0.303,0.102,0.599,0.223,0.886,0.361
		c0.007,0.002,0.013,0.004,0.019,0.008c-0.001-0.001-0.003-0.003-0.006-0.003c0.003,0.001,0.005,0.002,0.007,0.003
		c0.032,0.015,0.062,0.036,0.094,0.052c0.198,0.1,0.394,0.206,0.584,0.323c0.003,0.001,0.006,0.002,0.01,0.004
		c-0.003-0.001-0.004-0.001-0.006-0.002c0.041,0.025,0.082,0.049,0.123,0.076c0-0.001-0.002-0.002-0.003-0.002
		c0.001,0.001,0.004,0.002,0.006,0.003c0.111,0.071,0.216,0.153,0.323,0.23c0.1,0.07,0.202,0.134,0.299,0.21
		c0.001,0.001,0.002,0.002,0.003,0.002c0.038,0.031,0.077,0.062,0.116,0.094c0.203,0.166,0.399,0.338,0.587,0.524
		c0-0.001,0-0.001-0.001-0.001c0.001,0,0.001,0,0.001,0.001c0.024,0.023,0.045,0.047,0.067,0.07
		c-0.001-0.001-0.001-0.001-0.001-0.002c0.186,0.188,0.363,0.386,0.531,0.593l0,0v0.001v-0.001c0.017,0.021,0.035,0.042,0.053,0.062
		c0.004,0.006,0.008,0.012,0.013,0.018c0.002,0.002,0.003,0.004,0.005,0.007c0,0.001,0.002,0.002,0.003,0.003l-0.001-0.001
		c0.056,0.069,0.106,0.142,0.159,0.214c0.046,0.064,0.097,0.125,0.142,0.192c0.101,0.146,0.196,0.294,0.288,0.447
		C25.404,15.47,23.81,20.71,18.609,23.472z M20.85,22.653c0,0,0,0,0-0.002C20.85,22.653,20.85,22.653,20.85,22.653z"/>
	<path fill="#FFFFFF" d="M18.609,23.472c-1.639,0.868-3.199,1.201-4.701,1.231c-2.108,0.041-4.111-0.506-6.1-0.983l-3.936-1.36
		c1.702,1.705,4.175,3.061,7.364,4.542c1.45,0.676,2.907,0.9,4.281,0.875c1.139-0.022,2.221-0.223,3.195-0.489
		c2.154-0.583,3.368-1.359,3.756-1.604c0.186-0.145,0.364-0.291,0.54-0.438c0.03-0.025,0.058-0.051,0.088-0.076
		c0.061-0.053,0.12-0.105,0.18-0.156c0.144-0.126,0.285-0.25,0.423-0.376c0.033-0.032,0.068-0.064,0.102-0.097
		c0.027-0.025,0.056-0.051,0.084-0.076c-0.002,0-0.002,0-0.002,0c0.148-0.138,0.292-0.278,0.433-0.418
		c0-0.002,0.001-0.002,0.002-0.002c0.037-0.037,0.074-0.076,0.111-0.113c0.175-0.177,0.344-0.355,0.504-0.537h-0.001
		c0.005-0.002,0.008-0.007,0.012-0.012c0.006-0.007,0.013-0.014,0.019-0.021c0.028-0.034,0.058-0.066,0.087-0.102
		c-0.001,0.003-0.002,0.003-0.003,0.005c0.123-0.14,0.242-0.282,0.358-0.423c-0.001,0-0.001,0.003-0.003,0.003
		c0.05-0.061,0.097-0.12,0.146-0.18c0.105-0.136,0.209-0.271,0.309-0.406c-0.001,0.002-0.001,0.002-0.002,0.004
		c0.021-0.029,0.041-0.057,0.062-0.085c0.019-0.027,0.037-0.053,0.057-0.078c0.133-0.186,0.262-0.374,0.383-0.562
		c0,0,0,0-0.002,0.002c0.011-0.016,0.019-0.032,0.029-0.046c-0.002,0.003-0.004,0.005-0.005,0.005
		c0.001-0.002,0.003-0.005,0.005-0.007v0.002c0.109-0.174,0.214-0.349,0.313-0.525c0,0,0,0,0,0.002
		c0.032-0.06,0.064-0.119,0.097-0.177c-0.001,0-0.001,0-0.003,0.002c0.002-0.002,0.003-0.002,0.003-0.005c0,0,0,0,0,0.003
		c0.074-0.141,0.146-0.278,0.216-0.418c0,0,0,0.002-0.001,0.002c0.001,0,0.001-0.002,0.002-0.002c0.03-0.06,0.06-0.122,0.089-0.185
		c0.075-0.16,0.146-0.321,0.215-0.484c-0.002,0.002-0.003,0.005-0.004,0.007c0.001-0.002,0.002-0.005,0.004-0.007l0,0
		c0.014-0.034,0.029-0.068,0.044-0.104c-0.001,0-0.001,0.003-0.001,0.003c0.078-0.198,0.15-0.396,0.219-0.596c0,0,0,0-0.001,0
		c0.017-0.05,0.032-0.104,0.048-0.153c0,0.002-0.001,0.002-0.001,0.004c0.049-0.153,0.094-0.305,0.136-0.459
		c0,0.002-0.002,0.002-0.002,0.002c0.018-0.064,0.035-0.131,0.051-0.195c0,0,0,0,0,0.003c0.037-0.152,0.07-0.302,0.101-0.453
		c0-0.002,0-0.002,0-0.004c0,0.002,0,0.002,0,0.004c0.011-0.058,0.023-0.112,0.034-0.17c0,0.002,0,0.002,0,0.002
		c0.036-0.204,0.07-0.411,0.094-0.618l0,0c0.004-0.027,0.005-0.055,0.009-0.082c0,0.002,0,0.004,0,0.004
		c0.02-0.181,0.035-0.365,0.046-0.548c0-0.002,0-0.005,0-0.009c0.003-0.062,0.007-0.124,0.009-0.186c0,0,0,0,0,0.002
		c0.006-0.152,0.009-0.303,0.008-0.458c0-0.062,0-0.124-0.001-0.188v-0.002c-0.002-0.115-0.012-0.232-0.018-0.347
		c-0.004-0.115-0.007-0.229-0.016-0.344c-0.004-0.025-0.006-0.051-0.009-0.074c-0.019-0.209-0.044-0.42-0.075-0.631
		c-0.009-0.066-0.02-0.132-0.03-0.199c-0.031-0.202-0.069-0.405-0.113-0.61c-0.007-0.037-0.013-0.072-0.021-0.108
		c-0.045-0.2-0.093-0.4-0.147-0.602c-0.052-0.189-0.106-0.381-0.167-0.573c-0.032-0.103-0.069-0.206-0.104-0.308
		c-0.02-0.061-0.039-0.121-0.062-0.18c-0.085-0.243-0.177-0.486-0.276-0.73c-0.018-0.046-0.038-0.091-0.057-0.136
		c-0.001-0.003-0.003-0.007-0.005-0.012c-0.054-0.128-0.106-0.258-0.164-0.387c-0.176-0.394-0.37-0.794-0.582-1.196
		c-0.207-0.294-0.418-0.589-0.624-0.883c-2.701-3.014-5.742-4.481-9.113-4.416c-0.436,0.008-0.876,0.042-1.322,0.102
		c-1.34,0.18-2.729,0.592-4.169,1.234c-0.292,0.179-0.583,0.36-0.875,0.544c-3.367,2.799-4.549,5.634-3.854,8.79
		c0.878,3.988,4.593,6.381,7.972,6.312c0.401-0.009,0.797-0.053,1.186-0.131c4.12-0.841,6.91-5.139,4.191-8.608
		c-0.68-0.87-1.499-1.427-2.464-1.407c-0.268,0.006-0.547,0.058-0.836,0.155c-0.948,0.326-1.322,1.267-0.665,2.27
		c0.399,0.604,1.132,0.537,1.748,1.211c1.232,1.354-0.441,2.799-1.373,3.334c-0.714,0.404-1.41,0.611-2.076,0.625
		c-1.324,0.027-2.536-0.715-3.559-2.203c-1.648-2.412-0.923-5.585,1.652-7.319c0.159-0.107,0.318-0.207,0.479-0.299
		c1.128-0.651,2.329-0.961,3.518-0.985c0.161-0.003,0.321,0,0.483,0.007c-0.002,0-0.002,0-0.003,0
		c0.02,0.001,0.039,0.002,0.059,0.004c0.006,0,0.011,0,0.017,0.001c0.014,0.001,0.025,0.001,0.039,0.002
		c0.014,0.001,0.028,0.002,0.043,0.003c-0.013-0.001-0.023-0.001-0.035-0.002c0.123,0.008,0.244,0.017,0.366,0.031
		c-0.003-0.001-0.009-0.001-0.013-0.002c0.054,0.007,0.105,0.014,0.158,0.021c-0.006-0.001-0.01-0.002-0.016-0.002
		c0.014,0.002,0.027,0.003,0.041,0.005c-0.008-0.001-0.018-0.002-0.025-0.003c0.107,0.015,0.213,0.031,0.319,0.048
		c-0.001,0-0.002,0-0.003,0c0.007,0.001,0.014,0.002,0.021,0.003c0.028,0.004,0.058,0.01,0.086,0.016
		c0.015,0.003,0.031,0.007,0.046,0.009c0.012,0.002,0.023,0.004,0.033,0.007c-0.009-0.002-0.019-0.003-0.028-0.006
		c0.114,0.023,0.229,0.048,0.344,0.077c-0.01-0.002-0.019-0.005-0.029-0.007c0.011,0.002,0.021,0.004,0.033,0.008
		c0.04,0.01,0.081,0.021,0.121,0.031c0.124,0.033,0.248,0.07,0.369,0.109c-0.016-0.004-0.031-0.01-0.048-0.015
		c0.053,0.016,0.106,0.032,0.161,0.05c-0.008-0.002-0.016-0.004-0.022-0.007c0.303,0.102,0.599,0.223,0.886,0.361
		c0.007,0.002,0.013,0.004,0.019,0.008c-0.001-0.001-0.003-0.003-0.006-0.003c0.003,0.001,0.005,0.002,0.007,0.003
		c0.032,0.015,0.062,0.036,0.094,0.052c0.198,0.1,0.394,0.206,0.584,0.323c0.003,0.001,0.006,0.002,0.01,0.004
		c-0.003-0.001-0.004-0.001-0.006-0.002c0.041,0.025,0.082,0.049,0.123,0.076c0-0.001-0.002-0.002-0.003-0.002
		c0.001,0.001,0.004,0.002,0.006,0.003c0.111,0.071,0.216,0.153,0.323,0.23c0.1,0.07,0.202,0.134,0.299,0.21
		c0.001,0.001,0.002,0.002,0.003,0.002c0.038,0.031,0.077,0.062,0.116,0.094c0.203,0.166,0.399,0.338,0.587,0.524
		c0-0.001,0-0.001-0.001-0.001c0.001,0,0.001,0,0.001,0.001c0.024,0.023,0.045,0.047,0.067,0.07
		c-0.001-0.001-0.001-0.001-0.001-0.002c0.186,0.188,0.363,0.386,0.531,0.593l0,0v0.001v-0.001c0.017,0.021,0.035,0.042,0.053,0.062
		c0.004,0.006,0.008,0.012,0.013,0.018c0.002,0.002,0.003,0.004,0.005,0.007c0,0.001,0.002,0.002,0.003,0.003l-0.001-0.001
		c0.056,0.069,0.106,0.142,0.159,0.214c0.046,0.064,0.097,0.125,0.142,0.192c0.101,0.146,0.196,0.294,0.288,0.447
		C25.404,15.47,23.81,20.71,18.609,23.472z M20.85,22.653c0,0,0,0,0-0.002C20.85,22.653,20.85,22.653,20.85,22.653z"/>
	<path fill="#FFFFFF" d="M18.609,23.472c-1.639,0.868-3.199,1.201-4.701,1.231c-2.108,0.041-4.111-0.506-6.1-0.983l-3.936-1.36
		c1.702,1.705,4.175,3.061,7.364,4.542c1.45,0.676,2.907,0.9,4.281,0.875c1.139-0.022,2.221-0.223,3.195-0.489
		c2.154-0.583,3.368-1.359,3.756-1.604c0.186-0.145,0.364-0.291,0.54-0.438c0.03-0.025,0.058-0.051,0.088-0.076
		c0.061-0.053,0.12-0.105,0.18-0.156c0.144-0.126,0.285-0.25,0.423-0.376c0.033-0.032,0.068-0.064,0.102-0.097
		c0.027-0.025,0.056-0.051,0.084-0.076c-0.002,0-0.002,0-0.002,0c0.148-0.138,0.292-0.278,0.433-0.418
		c0-0.002,0.001-0.002,0.002-0.002c0.037-0.037,0.074-0.076,0.111-0.113c0.175-0.177,0.344-0.355,0.504-0.537h-0.001
		c0.005-0.002,0.008-0.007,0.012-0.012c0.006-0.007,0.013-0.014,0.019-0.021c0.028-0.034,0.058-0.066,0.087-0.102
		c-0.001,0.003-0.002,0.003-0.003,0.005c0.123-0.14,0.242-0.282,0.358-0.423c-0.001,0-0.001,0.003-0.003,0.003
		c0.05-0.061,0.097-0.12,0.146-0.18c0.105-0.136,0.209-0.271,0.309-0.406c-0.001,0.002-0.001,0.002-0.002,0.004
		c0.021-0.029,0.041-0.057,0.062-0.085c0.019-0.027,0.037-0.053,0.057-0.078c0.133-0.186,0.262-0.374,0.383-0.562
		c0,0,0,0-0.002,0.002c0.011-0.016,0.019-0.032,0.029-0.046c-0.002,0.003-0.004,0.005-0.005,0.005
		c0.001-0.002,0.003-0.005,0.005-0.007v0.002c0.109-0.174,0.214-0.349,0.313-0.525c0,0,0,0,0,0.002
		c0.032-0.06,0.064-0.119,0.097-0.177c-0.001,0-0.001,0-0.003,0.002c0.002-0.002,0.003-0.002,0.003-0.005c0,0,0,0,0,0.003
		c0.074-0.141,0.146-0.278,0.216-0.418c0,0,0,0.002-0.001,0.002c0.001,0,0.001-0.002,0.002-0.002c0.03-0.06,0.06-0.122,0.089-0.185
		c0.075-0.16,0.146-0.321,0.215-0.484c-0.002,0.002-0.003,0.005-0.004,0.007c0.001-0.002,0.002-0.005,0.004-0.007l0,0
		c0.014-0.034,0.029-0.068,0.044-0.104c-0.001,0-0.001,0.003-0.001,0.003c0.078-0.198,0.15-0.396,0.219-0.596c0,0,0,0-0.001,0
		c0.017-0.05,0.032-0.104,0.048-0.153c0,0.002-0.001,0.002-0.001,0.004c0.049-0.153,0.094-0.305,0.136-0.459
		c0,0.002-0.002,0.002-0.002,0.002c0.018-0.064,0.035-0.131,0.051-0.195c0,0,0,0,0,0.003c0.037-0.152,0.07-0.302,0.101-0.453
		c0-0.002,0-0.002,0-0.004c0,0.002,0,0.002,0,0.004c0.011-0.058,0.023-0.112,0.034-0.17c0,0.002,0,0.002,0,0.002
		c0.036-0.204,0.07-0.411,0.094-0.618l0,0c0.004-0.027,0.005-0.055,0.009-0.082c0,0.002,0,0.004,0,0.004
		c0.02-0.181,0.035-0.365,0.046-0.548c0-0.002,0-0.005,0-0.009c0.003-0.062,0.007-0.124,0.009-0.186c0,0,0,0,0,0.002
		c0.006-0.152,0.009-0.303,0.008-0.458c0-0.062,0-0.124-0.001-0.188v-0.002c-0.002-0.115-0.012-0.232-0.018-0.347
		c-0.004-0.115-0.007-0.229-0.016-0.344c-0.004-0.025-0.006-0.051-0.009-0.074c-0.019-0.209-0.044-0.42-0.075-0.631
		c-0.009-0.066-0.02-0.132-0.03-0.199c-0.031-0.202-0.069-0.405-0.113-0.61c-0.007-0.037-0.013-0.072-0.021-0.108
		c-0.045-0.2-0.093-0.4-0.147-0.602c-0.052-0.189-0.106-0.381-0.167-0.573c-0.032-0.103-0.069-0.206-0.104-0.308
		c-0.02-0.061-0.039-0.121-0.062-0.18c-0.085-0.243-0.177-0.486-0.276-0.73c-0.018-0.046-0.038-0.091-0.057-0.136
		c-0.001-0.003-0.003-0.007-0.005-0.012c-0.054-0.128-0.106-0.258-0.164-0.387c-0.176-0.394-0.37-0.794-0.582-1.196
		c-0.207-0.294-0.418-0.589-0.624-0.883c-2.701-3.014-5.742-4.481-9.113-4.416c-0.436,0.008-0.876,0.042-1.322,0.102
		c-1.34,0.18-2.729,0.592-4.169,1.234c-0.292,0.179-0.583,0.36-0.875,0.544c-3.367,2.799-4.549,5.634-3.854,8.79
		c0.878,3.988,4.593,6.381,7.972,6.312c0.401-0.009,0.797-0.053,1.186-0.131c4.12-0.841,6.91-5.139,4.191-8.608
		c-0.68-0.87-1.499-1.427-2.464-1.407c-0.268,0.006-0.547,0.058-0.836,0.155c-0.948,0.326-1.322,1.267-0.665,2.27
		c0.399,0.604,1.132,0.537,1.748,1.211c1.232,1.354-0.441,2.799-1.373,3.334c-0.714,0.404-1.41,0.611-2.076,0.625
		c-1.324,0.027-2.536-0.715-3.559-2.203c-1.648-2.412-0.923-5.585,1.652-7.319c0.159-0.107,0.318-0.207,0.479-0.299
		c1.128-0.651,2.329-0.961,3.518-0.985c0.161-0.003,0.321,0,0.483,0.007c-0.002,0-0.002,0-0.003,0
		c0.02,0.001,0.039,0.002,0.059,0.004c0.006,0,0.011,0,0.017,0.001c0.014,0.001,0.025,0.001,0.039,0.002
		c0.014,0.001,0.028,0.002,0.043,0.003c-0.013-0.001-0.023-0.001-0.035-0.002c0.123,0.008,0.244,0.017,0.366,0.031
		c-0.003-0.001-0.009-0.001-0.013-0.002c0.054,0.007,0.105,0.014,0.158,0.021c-0.006-0.001-0.01-0.002-0.016-0.002
		c0.014,0.002,0.027,0.003,0.041,0.005c-0.008-0.001-0.018-0.002-0.025-0.003c0.107,0.015,0.213,0.031,0.319,0.048
		c-0.001,0-0.002,0-0.003,0c0.007,0.001,0.014,0.002,0.021,0.003c0.028,0.004,0.058,0.01,0.086,0.016
		c0.015,0.003,0.031,0.007,0.046,0.009c0.012,0.002,0.023,0.004,0.033,0.007c-0.009-0.002-0.019-0.003-0.028-0.006
		c0.114,0.023,0.229,0.048,0.344,0.077c-0.01-0.002-0.019-0.005-0.029-0.007c0.011,0.002,0.021,0.004,0.033,0.008
		c0.04,0.01,0.081,0.021,0.121,0.031c0.124,0.033,0.248,0.07,0.369,0.109c-0.016-0.004-0.031-0.01-0.048-0.015
		c0.053,0.016,0.106,0.032,0.161,0.05c-0.008-0.002-0.016-0.004-0.022-0.007c0.303,0.102,0.599,0.223,0.886,0.361
		c0.007,0.002,0.013,0.004,0.019,0.008c-0.001-0.001-0.003-0.003-0.006-0.003c0.003,0.001,0.005,0.002,0.007,0.003
		c0.032,0.015,0.062,0.036,0.094,0.052c0.198,0.1,0.394,0.206,0.584,0.323c0.003,0.001,0.006,0.002,0.01,0.004
		c-0.003-0.001-0.004-0.001-0.006-0.002c0.041,0.025,0.082,0.049,0.123,0.076c0-0.001-0.002-0.002-0.003-0.002
		c0.001,0.001,0.004,0.002,0.006,0.003c0.111,0.071,0.216,0.153,0.323,0.23c0.1,0.07,0.202,0.134,0.299,0.21
		c0.001,0.001,0.002,0.002,0.003,0.002c0.038,0.031,0.077,0.062,0.116,0.094c0.203,0.166,0.399,0.338,0.587,0.524
		c0-0.001,0-0.001-0.001-0.001c0.001,0,0.001,0,0.001,0.001c0.024,0.023,0.045,0.047,0.067,0.07
		c-0.001-0.001-0.001-0.001-0.001-0.002c0.186,0.188,0.363,0.386,0.531,0.593l0,0v0.001v-0.001c0.017,0.021,0.035,0.042,0.053,0.062
		c0.004,0.006,0.008,0.012,0.013,0.018c0.002,0.002,0.003,0.004,0.005,0.007c0,0.001,0.002,0.002,0.003,0.003l-0.001-0.001
		c0.056,0.069,0.106,0.142,0.159,0.214c0.046,0.064,0.097,0.125,0.142,0.192c0.101,0.146,0.196,0.294,0.288,0.447
		C25.404,15.47,23.81,20.71,18.609,23.472z M20.85,22.653c0,0,0,0,0-0.002C20.85,22.653,20.85,22.653,20.85,22.653z"/>
	<path fill="#FFFFFF" d="M18.609,23.472c-1.639,0.868-3.199,1.201-4.701,1.231c-2.108,0.041-4.111-0.506-6.1-0.983l-3.936-1.36
		c1.702,1.705,4.175,3.061,7.364,4.542c1.45,0.676,2.907,0.9,4.281,0.875c1.139-0.022,2.221-0.223,3.195-0.489
		c2.154-0.583,3.368-1.359,3.756-1.604c0.186-0.145,0.364-0.291,0.54-0.438c0.03-0.025,0.058-0.051,0.088-0.076
		c0.061-0.053,0.12-0.105,0.18-0.156c0.144-0.126,0.285-0.25,0.423-0.376c0.033-0.032,0.068-0.064,0.102-0.097
		c0.027-0.025,0.056-0.051,0.084-0.076c-0.002,0-0.002,0-0.002,0c0.148-0.138,0.292-0.278,0.433-0.418
		c0-0.002,0.001-0.002,0.002-0.002c0.037-0.037,0.074-0.076,0.111-0.113c0.175-0.177,0.344-0.355,0.504-0.537h-0.001
		c0.005-0.002,0.008-0.007,0.012-0.012c0.006-0.007,0.013-0.014,0.019-0.021c0.028-0.034,0.058-0.066,0.087-0.102
		c-0.001,0.003-0.002,0.003-0.003,0.005c0.123-0.14,0.242-0.282,0.358-0.423c-0.001,0-0.001,0.003-0.003,0.003
		c0.05-0.061,0.097-0.12,0.146-0.18c0.105-0.136,0.209-0.271,0.309-0.406c-0.001,0.002-0.001,0.002-0.002,0.004
		c0.021-0.029,0.041-0.057,0.062-0.085c0.019-0.027,0.037-0.053,0.057-0.078c0.133-0.186,0.262-0.374,0.383-0.562
		c0,0,0,0-0.002,0.002c0.011-0.016,0.019-0.032,0.029-0.046c-0.002,0.003-0.004,0.005-0.005,0.005
		c0.001-0.002,0.003-0.005,0.005-0.007v0.002c0.109-0.174,0.214-0.349,0.313-0.525c0,0,0,0,0,0.002
		c0.032-0.06,0.064-0.119,0.097-0.177c-0.001,0-0.001,0-0.003,0.002c0.002-0.002,0.003-0.002,0.003-0.005c0,0,0,0,0,0.003
		c0.074-0.141,0.146-0.278,0.216-0.418c0,0,0,0.002-0.001,0.002c0.001,0,0.001-0.002,0.002-0.002c0.03-0.06,0.06-0.122,0.089-0.185
		c0.075-0.16,0.146-0.321,0.215-0.484c-0.002,0.002-0.003,0.005-0.004,0.007c0.001-0.002,0.002-0.005,0.004-0.007l0,0
		c0.014-0.034,0.029-0.068,0.044-0.104c-0.001,0-0.001,0.003-0.001,0.003c0.078-0.198,0.15-0.396,0.219-0.596c0,0,0,0-0.001,0
		c0.017-0.05,0.032-0.104,0.048-0.153c0,0.002-0.001,0.002-0.001,0.004c0.049-0.153,0.094-0.305,0.136-0.459
		c0,0.002-0.002,0.002-0.002,0.002c0.018-0.064,0.035-0.131,0.051-0.195c0,0,0,0,0,0.003c0.037-0.152,0.07-0.302,0.101-0.453
		c0-0.002,0-0.002,0-0.004c0,0.002,0,0.002,0,0.004c0.011-0.058,0.023-0.112,0.034-0.17c0,0.002,0,0.002,0,0.002
		c0.036-0.204,0.07-0.411,0.094-0.618l0,0c0.004-0.027,0.005-0.055,0.009-0.082c0,0.002,0,0.004,0,0.004
		c0.02-0.181,0.035-0.365,0.046-0.548c0-0.002,0-0.005,0-0.009c0.003-0.062,0.007-0.124,0.009-0.186c0,0,0,0,0,0.002
		c0.006-0.152,0.009-0.303,0.008-0.458c0-0.062,0-0.124-0.001-0.188v-0.002c-0.002-0.115-0.012-0.232-0.018-0.347
		c-0.004-0.115-0.007-0.229-0.016-0.344c-0.004-0.025-0.006-0.051-0.009-0.074c-0.019-0.209-0.044-0.42-0.075-0.631
		c-0.009-0.066-0.02-0.132-0.03-0.199c-0.031-0.202-0.069-0.405-0.113-0.61c-0.007-0.037-0.013-0.072-0.021-0.108
		c-0.045-0.2-0.093-0.4-0.147-0.602c-0.052-0.189-0.106-0.381-0.167-0.573c-0.032-0.103-0.069-0.206-0.104-0.308
		c-0.02-0.061-0.039-0.121-0.062-0.18c-0.085-0.243-0.177-0.486-0.276-0.73c-0.018-0.046-0.038-0.091-0.057-0.136
		c-0.001-0.003-0.003-0.007-0.005-0.012c-0.054-0.128-0.106-0.258-0.164-0.387c-0.176-0.394-0.37-0.794-0.582-1.196
		c-0.207-0.294-0.418-0.589-0.624-0.883c-2.701-3.014-5.742-4.481-9.113-4.416c-0.436,0.008-0.876,0.042-1.322,0.102
		c-1.34,0.18-2.729,0.592-4.169,1.234c-0.292,0.179-0.583,0.36-0.875,0.544c-3.367,2.799-4.549,5.634-3.854,8.79
		c0.878,3.988,4.593,6.381,7.972,6.312c0.401-0.009,0.797-0.053,1.186-0.131c4.12-0.841,6.91-5.139,4.191-8.608
		c-0.68-0.87-1.499-1.427-2.464-1.407c-0.268,0.006-0.547,0.058-0.836,0.155c-0.948,0.326-1.322,1.267-0.665,2.27
		c0.399,0.604,1.132,0.537,1.748,1.211c1.232,1.354-0.441,2.799-1.373,3.334c-0.714,0.404-1.41,0.611-2.076,0.625
		c-1.324,0.027-2.536-0.715-3.559-2.203c-1.648-2.412-0.923-5.585,1.652-7.319c0.159-0.107,0.318-0.207,0.479-0.299
		c1.128-0.651,2.329-0.961,3.518-0.985c0.161-0.003,0.321,0,0.483,0.007c-0.002,0-0.002,0-0.003,0
		c0.02,0.001,0.039,0.002,0.059,0.004c0.006,0,0.011,0,0.017,0.001c0.014,0.001,0.025,0.001,0.039,0.002
		c0.014,0.001,0.028,0.002,0.043,0.003c-0.013-0.001-0.023-0.001-0.035-0.002c0.123,0.008,0.244,0.017,0.366,0.031
		c-0.003-0.001-0.009-0.001-0.013-0.002c0.054,0.007,0.105,0.014,0.158,0.021c-0.006-0.001-0.01-0.002-0.016-0.002
		c0.014,0.002,0.027,0.003,0.041,0.005c-0.008-0.001-0.018-0.002-0.025-0.003c0.107,0.015,0.213,0.031,0.319,0.048
		c-0.001,0-0.002,0-0.003,0c0.007,0.001,0.014,0.002,0.021,0.003c0.028,0.004,0.058,0.01,0.086,0.016
		c0.015,0.003,0.031,0.007,0.046,0.009c0.012,0.002,0.023,0.004,0.033,0.007c-0.009-0.002-0.019-0.003-0.028-0.006
		c0.114,0.023,0.229,0.048,0.344,0.077c-0.01-0.002-0.019-0.005-0.029-0.007c0.011,0.002,0.021,0.004,0.033,0.008
		c0.04,0.01,0.081,0.021,0.121,0.031c0.124,0.033,0.248,0.07,0.369,0.109c-0.016-0.004-0.031-0.01-0.048-0.015
		c0.053,0.016,0.106,0.032,0.161,0.05c-0.008-0.002-0.016-0.004-0.022-0.007c0.303,0.102,0.599,0.223,0.886,0.361
		c0.007,0.002,0.013,0.004,0.019,0.008c-0.001-0.001-0.003-0.003-0.006-0.003c0.003,0.001,0.005,0.002,0.007,0.003
		c0.032,0.015,0.062,0.036,0.094,0.052c0.198,0.1,0.394,0.206,0.584,0.323c0.003,0.001,0.006,0.002,0.01,0.004
		c-0.003-0.001-0.004-0.001-0.006-0.002c0.041,0.025,0.082,0.049,0.123,0.076c0-0.001-0.002-0.002-0.003-0.002
		c0.001,0.001,0.004,0.002,0.006,0.003c0.111,0.071,0.216,0.153,0.323,0.23c0.1,0.07,0.202,0.134,0.299,0.21
		c0.001,0.001,0.002,0.002,0.003,0.002c0.038,0.031,0.077,0.062,0.116,0.094c0.203,0.166,0.399,0.338,0.587,0.524
		c0-0.001,0-0.001-0.001-0.001c0.001,0,0.001,0,0.001,0.001c0.024,0.023,0.045,0.047,0.067,0.07
		c-0.001-0.001-0.001-0.001-0.001-0.002c0.186,0.188,0.363,0.386,0.531,0.593l0,0v0.001v-0.001c0.017,0.021,0.035,0.042,0.053,0.062
		c0.004,0.006,0.008,0.012,0.013,0.018c0.002,0.002,0.003,0.004,0.005,0.007c0,0.001,0.002,0.002,0.003,0.003l-0.001-0.001
		c0.056,0.069,0.106,0.142,0.159,0.214c0.046,0.064,0.097,0.125,0.142,0.192c0.101,0.146,0.196,0.294,0.288,0.447
		C25.404,15.47,23.81,20.71,18.609,23.472z"/>
</g>
</svg>
